<?xml version="1.0" encoding="UTF-8"?>
<svg version="1.1" xmlns="http://www.w3.org/2000/svg" width="290" height="192">
<path d="M0 0 C16.07026294 -0.16043524 16.07026294 -0.16043524 22.97265625 -0.1953125 C27.66441162 -0.21913278 32.35585182 -0.24717104 37.04736328 -0.30175781 C40.83401546 -0.34553565 44.62032921 -0.3692036 48.40721512 -0.37950897 C49.84478704 -0.38684359 51.28234251 -0.40116499 52.71976852 -0.42292023 C65.65224122 -0.6106907 74.35069926 1.56754122 83.86328125 10.6171875 C90.34160836 17.84164735 91.46390214 25.7301703 91.2734375 35.1328125 C90.63584751 44.15015663 86.70738837 51.0250276 80 57 C68.22560324 65.86093681 56.05547995 66.42722842 41.8125 66.1875 C36.594375 66.125625 31.37625 66.06375 26 66 C26 78.21 26 90.42 26 103 C19.73 103 13.46 103 7 103 C10.64260432 113.77603779 16.22091466 121.24947379 26.31640625 126.78125 C38.80836963 132.45445607 51.87477318 132.05855676 65.03515625 129.37109375 C65.8958522 129.19681854 66.75654816 129.02254333 67.64332581 128.84298706 C77.33282712 126.8147058 86.84123578 124.15735021 96.36865234 121.48379517 C110.99456888 117.39083656 125.61733412 113.3651983 140.5 110.3125 C142.0941272 109.98403076 142.0941272 109.98403076 143.72045898 109.64892578 C157.56522623 106.94335988 171.22216365 105.58420682 185.3125 105.625 C186.02856415 105.62554382 186.7446283 105.62608765 187.48239136 105.62664795 C206.34515913 105.69220832 224.16215244 109.13797497 241 118 C241 118.66 241 119.32 241 120 C240.15824219 120.27070312 239.31648438 120.54140625 238.44921875 120.8203125 C219.37393597 127.43624651 201.78062843 137.82084457 184.2109375 147.6484375 C182.8074791 148.43262721 181.40383272 149.21648058 180 150 C178.93700684 150.59409668 178.93700684 150.59409668 177.85253906 151.20019531 C148.25263737 167.61816845 116.32416777 179.89801069 83 186 C81.76507813 186.24492187 80.53015625 186.48984375 79.2578125 186.7421875 C47.59311873 192.08057698 12.01264525 187.88497245 -14.7109375 169.09375 C-29.41507764 157.69238595 -41.66701138 142.81685412 -45 124 C-46.07706907 112.30695736 -45.67430191 100.89142895 -41 90 C-40.62617187 89.11183594 -40.25234375 88.22367187 -39.8671875 87.30859375 C-33.92553807 74.42190376 -23.88457423 64.36039742 -12.25 56.5 C-11.61191406 56.06631104 -10.97382812 55.63262207 -10.31640625 55.18579102 C-6.69173687 52.8182626 -4.35518054 51.87103611 0 51 C0 34.17 0 17.34 0 0 Z M26 19 C26 27.91 26 36.82 26 46 C30.54202541 46.08100045 35.08260304 46.14050969 39.625 46.1875 C40.91019531 46.21263672 42.19539063 46.23777344 43.51953125 46.26367188 C44.76347656 46.27333984 46.00742188 46.28300781 47.2890625 46.29296875 C48.43068848 46.3086792 49.57231445 46.32438965 50.74853516 46.34057617 C55.74261606 45.81746888 58.96315102 44.14894076 62.3125 40.4375 C65.142952 36.34906933 65.18696329 34.17161505 64.5625 29.32421875 C63.60406575 25.36402168 62.05691503 23.72464166 59 21 C52.37114701 18.31016282 45.61760238 18.77570043 38.5625 18.875 C32.3440625 18.936875 32.3440625 18.936875 26 19 Z M133.8515625 131.0625 C132.83348385 131.33861681 132.83348385 131.33861681 131.79483795 131.62031174 C124.87624471 133.49824763 117.96139908 135.38873385 111.05605698 137.3148632 C96.7455975 141.30107366 82.49114394 144.95457289 67.83596802 147.47305298 C66.83032806 147.64871796 65.82468811 147.82438293 64.78857422 148.00537109 C63.90789276 148.15106537 63.0272113 148.29675964 62.11984253 148.4468689 C59.80205806 148.8608283 59.80205806 148.8608283 58 151 C59.82009938 153.23952164 59.82009938 153.23952164 62.43798828 153.25683594 C69.43205175 153.20459906 76.01935899 152.62055403 82.875 151.25 C83.94524414 151.04028564 85.01548828 150.83057129 86.11816406 150.61450195 C108.49137731 146.01373131 130.56128261 139.70113921 152.578125 133.65234375 C164.96788253 130.25931459 177.34368227 127.14780765 189.9375 124.625 C191.12794922 124.38604004 192.31839844 124.14708008 193.54492188 123.90087891 C206.28602373 121.43376426 219.04897596 119.82991385 232 119 C232 118.67 232 118.34 232 118 C198.91729167 113.33304228 165.55701725 122.45636807 133.8515625 131.0625 Z " fill="#9D1807" transform="translate(47,2)"/>
<path d="M0 0 C33.66 0 67.32 0 102 0 C102 6.6 102 13.2 102 20 C89.46 20 76.92 20 64 20 C64.01160156 25.90777344 64.02320313 31.81554688 64.03515625 37.90234375 C64.040263 41.63476672 64.04507677 45.3671854 64.04882812 49.09960938 C64.0548166 55.02987558 64.06191703 60.96012642 64.07543945 66.89038086 C64.08626822 71.66898836 64.09227681 76.44757938 64.09487724 81.2261982 C64.09673151 83.05353619 64.10035216 84.88087324 64.10573006 86.70820427 C64.11294036 89.25853329 64.11399095 91.80879337 64.11352539 94.35913086 C64.11712067 95.12229614 64.12071594 95.88546143 64.12442017 96.67175293 C64.11405216 101.88594784 64.11405216 101.88594784 63 103 C55.08 103 47.16 103 39 103 C39 75.28 39 47.56 39 19 C38.01 19.33 37.02 19.66 36 20 C33.2684044 20.08507079 30.56308557 20.11591565 27.83203125 20.09765625 C26.63981209 20.09553383 26.63981209 20.09553383 25.42350769 20.09336853 C22.88646675 20.08777378 20.34951425 20.07522228 17.8125 20.0625 C16.09179815 20.05748432 14.37109492 20.05292153 12.65039062 20.04882812 C8.43353231 20.03865722 4.21686509 20.01908084 0 20 C0 13.4 0 6.8 0 0 Z " fill="#A21908" transform="translate(150,2)"/>
<path d="M0 0 C1.41791408 0.45445964 2.83428046 0.91374944 4.25 1.375 C5.03890625 1.63023438 5.8278125 1.88546875 6.640625 2.1484375 C8.86627958 2.95173667 10.90931672 3.89711662 13 5 C13 5.66 13 6.32 13 7 C11.73736328 7.40605469 11.73736328 7.40605469 10.44921875 7.8203125 C-5.10092548 13.21361278 -20.09041715 21.01372081 -34.18359375 29.4921875 C-35.11300781 29.98976562 -36.04242188 30.48734375 -37 31 C-37.66 30.67 -38.32 30.34 -39 30 C-25.31735445 21.90899141 -11.45245004 14.61854855 3 8 C-1.62 8 -6.24 8 -11 8 C-9 6 -9 6 -4 5 C-11.26 5 -18.52 5 -26 5 C-26 4.34 -26 3.68 -26 3 C-17.42 2.67 -8.84 2.34 0 2 C0 1.34 0 0.68 0 0 Z " fill="#922112" transform="translate(275,115)"/>
<path d="M0 0 C0.33 0 0.66 0 1 0 C1 6.6 1 13.2 1 20 C-11.54 20 -24.08 20 -37 20 C-37.33 20.66 -37.66 21.32 -38 22 C-38 20.68 -38 19.36 -38 18 C-25.79 17.67 -13.58 17.34 -1 17 C-0.67 11.39 -0.34 5.78 0 0 Z " fill="#992617" transform="translate(251,2)"/>
<path d="M0 0 C4.95 0 9.9 0 15 0 C15 0.66 15 1.32 15 2 C15.66 2 16.32 2 17 2 C17 2.99 17 3.98 17 5 C10.93582051 5.3235827 6.2493273 5.49955154 1 2 C0.67 1.34 0.34 0.68 0 0 Z " fill="#B03428" transform="translate(89,151)"/>
<path d="M0 0 C1.61732041 3.23464083 0.99875197 6.74708451 0.87890625 10.2890625 C0.85529526 11.10748627 0.83168427 11.92591003 0.80735779 12.76913452 C0.73067056 15.3879306 0.64666817 18.00643471 0.5625 20.625 C0.50928437 22.39842312 0.45654393 24.17186058 0.40429688 25.9453125 C0.2750486 30.29706054 0.13923848 34.64856061 0 39 C-0.99 38.67 -1.98 38.34 -3 38 C-2.67 37.01 -2.34 36.02 -2 35 C-1.85860113 32.42821696 -1.76693413 29.87828488 -1.71875 27.3046875 C-1.70034058 26.55663849 -1.68193115 25.80858948 -1.66296387 25.03787231 C-1.58428931 21.8377305 -1.51633788 18.6373833 -1.44775391 15.43701172 C-1.39616091 13.10112676 -1.33887984 10.76543003 -1.28125 8.4296875 C-1.26767456 7.70055145 -1.25409912 6.97141541 -1.2401123 6.22018433 C-1.11285649 1.11285649 -1.11285649 1.11285649 0 0 Z " fill="#962211" transform="translate(73,66)"/>
<path d="M0 0 C0 0.66 0 1.32 0 2 C0.66 2 1.32 2 2 2 C2 2.99 2 3.98 2 5 C-0.64 4.67 -3.28 4.34 -6 4 C-6.33 3.01 -6.66 2.02 -7 1 C-2.25 0 -2.25 0 0 0 Z " fill="#BA473E" transform="translate(104,151)"/>
</svg>
